<svg width="28" height="17" viewBox="0 0 28 17" fill="none" xmlns="http://www.w3.org/2000/svg">
<path d="M27.1426 6.93822L16.5154 0.580008C16.2525 0.420039 15.9514 0.33361 15.6437 0.32975C15.336 0.32589 15.0329 0.40474 14.766 0.558064C14.4765 0.726662 14.2368 0.96888 14.0711 1.26012C13.9055 1.55135 13.8199 1.88124 13.823 2.21626V6.6642L3.65435 0.57832C3.39144 0.418351 3.0904 0.331922 2.78268 0.328062C2.47495 0.324202 2.17183 0.403052 1.905 0.556376C1.61547 0.724974 1.37571 0.967192 1.21008 1.25843C1.04445 1.54967 0.958845 1.87955 0.961955 2.21458V14.6497C0.958745 14.9848 1.0443 15.3148 1.20994 15.6061C1.37558 15.8975 1.61538 16.1398 1.905 16.3084C2.17183 16.4618 2.47495 16.5406 2.78268 16.5367C3.0904 16.5329 3.39144 16.4465 3.65435 16.2865L13.823 10.1978V14.6474C13.8194 14.9829 13.9048 15.3134 14.0704 15.6052C14.2361 15.8969 14.4761 16.1396 14.766 16.3084C15.0329 16.4618 15.336 16.5406 15.6437 16.5367C15.9514 16.5329 16.2525 16.4465 16.5154 16.2865L27.1426 9.92827C27.3953 9.77001 27.6035 9.55016 27.7479 9.28934C27.8923 9.02853 27.968 8.7353 27.968 8.43719C27.968 8.13907 27.8923 7.84585 27.7479 7.58503C27.6035 7.32421 27.3953 7.10436 27.1426 6.9461V6.93822Z" fill="#E1E1E6"/>
</svg>
