<svg width="28" height="17" viewBox="0 0 28 17" fill="none" xmlns="http://www.w3.org/2000/svg">
<path d="M1.33917 6.93822L11.9664 0.580008C12.2293 0.420039 12.5303 0.33361 12.8381 0.32975C13.1458 0.32589 13.4489 0.40474 13.7157 0.558064C14.0053 0.726662 14.245 0.96888 14.4107 1.26012C14.5763 1.55135 14.6619 1.88124 14.6588 2.21626V6.6642L24.8274 0.57832C25.0903 0.418351 25.3914 0.331922 25.6991 0.328062C26.0068 0.324202 26.3099 0.403052 26.5768 0.556376C26.8663 0.724974 27.1061 0.967192 27.2717 1.25843C27.4373 1.54967 27.5229 1.87955 27.5198 2.21458V14.6497C27.5231 14.9848 27.4376 15.3148 27.2719 15.6062C27.1063 15.8975 26.8664 16.1398 26.5768 16.3084C26.3099 16.4618 26.0068 16.5406 25.6991 16.5367C25.3914 16.5329 25.0903 16.4465 24.8274 16.2865L14.6588 10.1978V14.6474C14.6625 14.9829 14.5771 15.3134 14.4114 15.6052C14.2458 15.897 14.0057 16.1396 13.7157 16.3084C13.4489 16.4618 13.1458 16.5406 12.8381 16.5367C12.5303 16.5329 12.2293 16.4465 11.9664 16.2865L1.33917 9.92827C1.08653 9.77001 0.878246 9.55016 0.733863 9.28934C0.589479 9.02853 0.513733 8.7353 0.513733 8.43719C0.513733 8.13907 0.589479 7.84585 0.733863 7.58503C0.878246 7.32421 1.08653 7.10436 1.33917 6.9461V6.93822Z" fill="#E1E1E6"/>
</svg>
