<svg width="19" height="21" viewBox="0 0 19 21" fill="none" xmlns="http://www.w3.org/2000/svg">
<path d="M2.32137 20.7845C1.9759 20.7838 1.63655 20.6933 1.33669 20.5217C0.661484 20.1391 0.24173 19.3964 0.24173 18.59V2.2725C0.24173 1.46394 0.661484 0.723459 1.33669 0.34084C1.64369 0.164406 1.99244 0.0736747 2.3465 0.0781289C2.70056 0.082583 3.04692 0.18206 3.34938 0.366161L17.2952 8.71399C17.5859 8.89624 17.8255 9.14931 17.9916 9.44948C18.1577 9.74966 18.2448 10.0871 18.2448 10.4301C18.2448 10.7732 18.1577 11.1106 17.9916 11.4108C17.8255 11.711 17.5859 11.9641 17.2952 12.1463L3.34713 20.4964C3.0376 20.6835 2.68307 20.7831 2.32137 20.7845V20.7845Z" fill="#E1E1E6"/>
</svg>
